<svg width="1200" height="630" viewBox="0 0 1200 630" fill="none" xmlns="http://www.w3.org/2000/svg">
  <defs>
    <linearGradient id="bg" x1="156" y1="38" x2="1044" y2="592" gradientUnits="userSpaceOnUse">
      <stop stop-color="#2EA8FF" />
      <stop offset="1" stop-color="#0B5ED7" />
    </linearGradient>
    <linearGradient id="drop" x1="520" y1="140" x2="710" y2="420" gradientUnits="userSpaceOnUse">
      <stop stop-color="#E8F6FF" stop-opacity="0.95" />
      <stop offset="1" stop-color="#FFFFFF" stop-opacity="0.7" />
    </linearGradient>
    <filter id="shadow" x="0" y="0" width="1200" height="630" filterUnits="userSpaceOnUse" color-interpolation-filters="sRGB">
      <feFlood flood-opacity="0" result="BackgroundImageFix" />
      <feColorMatrix in="SourceAlpha" type="matrix" values="0 0 0 0 0 0 0 0 0 0 0 0 0 0 0 0 0 0 127 0" result="hardAlpha" />
      <feOffset dy="12" />
      <feGaussianBlur stdDeviation="22" />
      <feColorMatrix type="matrix" values="0 0 0 0 0.043 0 0 0 0 0.106 0 0 0 0 0.227 0 0 0 0.18 0" />
      <feBlend mode="normal" in2="BackgroundImageFix" result="effect1_dropShadow" />
      <feBlend mode="normal" in="SourceGraphic" in2="effect1_dropShadow" result="shape" />
    </filter>
  </defs>

  <rect width="1200" height="630" rx="44" fill="url(#bg)" />

  <g filter="url(#shadow)">
    <rect x="96" y="84" width="1008" height="462" rx="40" fill="rgba(255,255,255,0.14)" stroke="rgba(255,255,255,0.22)" />
  </g>

  <!-- Simple water drop mark (placeholder). Replace with official icon at /og-image.png on deploy. -->
  <path
    d="M600 146C674 226 740 302 740 382C740 469 678 532 600 532C522 532 460 469 460 382C460 302 526 226 600 146Z"
    fill="url(#drop)"
    stroke="rgba(255,255,255,0.6)"
    stroke-width="6"
  />
  <path
    d="M682 404C665 451 624 484 576 484C526 484 484 449 470 399"
    stroke="rgba(11,94,215,0.55)"
    stroke-width="10"
    stroke-linecap="round"
    fill="none"
  />

  <text x="600" y="300" text-anchor="middle" fill="#FFFFFF" font-family="Arial, Helvetica, sans-serif" font-size="56" font-weight="800">
    Aquabeast WRS
  </text>
  <text x="600" y="360" text-anchor="middle" fill="rgba(255,255,255,0.92)" font-family="Arial, Helvetica, sans-serif" font-size="28" font-weight="600">
    Download App
  </text>
</svg>

